# xmcd
#
# Track frame offsets:
#	150
#	14606
#	29157
#	45204
#	59703
#	73789
#	90325
#	109401
#	125150
#	144449
#	158590
#	174051
#	193813
#	209524
#	224870
#	243293
#	274656
#
# Disc length: 3677 seconds
#
# Revision: 1
# Processed by: cddbd v1.5.2PL0 Copyright (c) Steve Scherf et al.
# Submitted via: audiograbber 1.83.01
#
DISCID=050e5b11
DTITLE=Chartbusters - Country 500 vol.1 d.20
DYEAR=1900
DGENRE=karaoke
TTITLE0=Collin Raye - That's My Story
TTITLE1=Tracy Bird - Watermelon Crawl
TTITLE2=Martina McBride - Independence day
TTITLE3=David Ball - Thinking problem
TTITLE4=Pam Tillis - Mi Vida Loca (My Crazy Life)
TTITLE5=Joe Diffie - Pickup man
TTITLE6=John Berry - Your love amazes me
TTITLE7=Reba McIntire - Why Haven't I Heard from You
TTITLE8=Tim McGraw - Don't Take the Girl
TTITLE9=Trisha Yearwood - Xxx's and Ooo's
TTITLE10=David Lee Murphy - Party Crowd
TTITLE11=Alison Krauss and Union Station - When You Say Nothing at All
TTITLE12=George Strait - Check Yes or No
TTITLE13=Faith Hill - It Matters to Me
TTITLE14=Rhett Akins - That aint my truck
TTITLE15=Shania Twain - Whose Bed Have Your Boots Been Under
TTITLE16=Data - Track
EXTD=
EXTT0=
EXTT1=
EXTT2=
EXTT3=
EXTT4=
EXTT5=
EXTT6=
EXTT7=
EXTT8=
EXTT9=
EXTT10=
EXTT11=
EXTT12=
EXTT13=
EXTT14=
EXTT15=
EXTT16=
PLAYORDER=
